<svg id="Capa_1" enable-background="new 0 0 512 512" height="512" viewBox="0 0 512 512" width="512" xmlns="http://www.w3.org/2000/svg"><g><path d="m256 272.167c-8.284 0-15 6.716-15 15v112.883c0 8.284 6.716 15 15 15s15-6.716 15-15v-112.883c0-8.284-6.716-15-15-15z"/><path d="m176.368 285.932c-.683-8.256-7.927-14.395-16.185-13.714-8.256.683-14.396 7.929-13.714 16.185l9.329 112.883c.683 8.258 7.929 14.396 16.185 13.714 8.256-.683 14.396-7.929 13.714-16.185z"/><path d="m351.816 272.218c-8.259-.684-15.502 5.458-16.185 13.714l-9.329 112.883c-.682 8.256 5.458 15.502 13.714 16.185.42.035.838.052 1.252.052 7.725 0 14.285-5.93 14.933-13.766l9.329-112.883c.683-8.256-5.458-15.502-13.714-16.185z"/><path d="m497 203.332c-29.669 0-25.796 0-42.381 0l-73.4-166.275c-2.399-5.436-7.781-8.942-13.723-8.942h-35.905c-8.284 0-15 6.716-15 15s6.716 15 15 15h26.13l64.105 145.218h-331.651l64.104-145.218h26.13c8.284 0 15-6.716 15-15s-6.716-15-15-15h-35.905c-5.941 0-11.323 3.507-13.723 8.942l-73.4 166.275c-18.796 0 3.141 0-42.382 0-8.284 0-15 6.716-15 15s6.716 15 15 15h15.725l37.182 237.87c1.141 7.301 7.43 12.684 14.82 12.684h346.547c7.39 0 13.679-5.382 14.82-12.684l37.182-237.87h15.725c8.284 0 15-6.716 15-15s-6.716-15-15-15zm-80.564 250.554h-320.872l-34.475-220.554h389.822z"/></g></svg>